PathFileType	4	(X/Y/Z)	C:\Users\Basilio\Documents\Thesis Gigler\squatting_fais\c3dfiles\044\SLS_back_pre4\markers_experimental.trc
DataRate	CameraRate	NumFrames	NumMarkers	Units	OrigDataRate	OrigDataStartFrame	OrigNumFrames
200.000000	200.000000	4	63	mm	200.000000	0	1367
Frame#	Time	FHD			LBHD			RBHD			C7			T10			LSHO			LUUPA			LMUPA			LDUPA			LLEP			LMEP			LUL			LRFIN			RSHO			RUPA1			RMUPA			RDUPA			RLEP			RMEP			RUFIN			LASI			RASI			USACR			LSACR			RSACR			LTHI1			LTHI2			LTHI3			LTHI4			LLFC			LMFC			LTIB1			LTIB2			LTIB3			LTIB4			LLMAL			LMMAL			LHEE			LMT1			LMT2			LMT5			RTHI			RTHI2			RTHI3			RTHI4			RLFC			RMFC			RTIB1			RTIB2			RTIB3			RTIB4			RLMAL			RMMAL			RHEE			RMT1			RMT2			RMT5			RRAD			RUL			CLAV			LRAD			*61			*62			
		X1	Y1	Z1	X2	Y2	Z2	X3	Y3	Z3	X4	Y4	Z4	X5	Y5	Z5	X6	Y6	Z6	X7	Y7	Z7	X8	Y8	Z8	X9	Y9	Z9	X10	Y10	Z10	X11	Y11	Z11	X12	Y12	Z12	X13	Y13	Z13	X14	Y14	Z14	X15	Y15	Z15	X16	Y16	Z16	X17	Y17	Z17	X18	Y18	Z18	X19	Y19	Z19	X20	Y20	Z20	X21	Y21	Z21	X22	Y22	Z22	X23	Y23	Z23	X24	Y24	Z24	X25	Y25	Z25	X26	Y26	Z26	X27	Y27	Z27	X28	Y28	Z28	X29	Y29	Z29	X30	Y30	Z30	X31	Y31	Z31	X32	Y32	Z32	X33	Y33	Z33	X34	Y34	Z34	X35	Y35	Z35	X36	Y36	Z36	X37	Y37	Z37	X38	Y38	Z38	X39	Y39	Z39	X40	Y40	Z40	X41	Y41	Z41	X42	Y42	Z42	X43	Y43	Z43	X44	Y44	Z44	X45	Y45	Z45	X46	Y46	Z46	X47	Y47	Z47	X48	Y48	Z48	X49	Y49	Z49	X50	Y50	Z50	X51	Y51	Z51	X52	Y52	Z52	X53	Y53	Z53	X54	Y54	Z54	X55	Y55	Z55	X56	Y56	Z56	X57	Y57	Z57	X58	Y58	Z58	X59	Y59	Z59	X60	Y60	Z60	X61	Y61	Z61	X62	Y62	Z62	X63	Y63	Z63	

1	0	-187.7384643554688	1800.545654296875	-797.3291015625002	-323.8495483398438	1768.754150390625	-870.844177246094	-359.8363952636719	1742.636596679688	-710.6590576171876	-376.0054321289063	1568.379760742188	-803.5166625976565	-372.6551818847657	1267.506103515625	-823.0065917968752	-296.7824707031251	1602.607299804688	-952.063903808594	-157.275634765625	1605.787109375	-1083.490112304688	-121.5248260498047	1618.539184570313	-1051.2822265625	-89.04598999023439	1611.857421875	-1103.365844726563	-30.59640693664551	1622.564575195313	-1104.570678710938	-26.13022041320801	1541.170654296875	-1100.885864257813	211.7942962646485	1656.43798828125	-961.165466308594	225.8577270507813	1667.212036132813	-856.3034667968752	-286.1425476074219	1571.076416015625	-653.2223510742189	-132.3936920166016	1565.1318359375	-553.6948852539064	-105.2296371459961	1585.250122070313	-592.0759277343751	-63.40706253051759	1575.2119140625	-549.7736816406251	-3.210383415222169	1588.023803710938	-559.8546142578126	6.830554485321047	1507.68408203125	-572.8279418945314	235.2276916503907	1644.861572265625	-703.3421020507814	-216.3011016845704	1074.275024414063	-952.1123046875002	-194.7034912109376	1049.687377929688	-738.8507080078126	-369.9100341796876	1124.784545898438	-824.398376464844	-379.8532104492188	1093.657470703125	-852.1264648437502	-371.7198486328126	1093.198852539063	-795.2659912109377	-311.6009521484376	841.7723388671877	-1042.476928710938	-276.3182983398438	764.9266967773439	-1048.249389648438	-228.9714813232422	768.6187744140627	-1041.540771484375	-301.3132019042969	710.7892456054689	-1038.093139648438	-277.7181396484376	552.3895263671876	-1034.962646484375	-270.0110473632813	537.0969238281251	-913.2448730468752	-261.4678039550782	371.6897888183594	-978.1672363281252	-289.2783203125001	331.7765808105469	-1052.591186523438	-259.1491699218751	325.7685241699219	-1016.475219726563	-279.5643005371094	247.6837005615235	-993.2907714843752	-332.9775085449219	134.0270080566407	-1050.703979492188	-315.3587341308594	139.1456604003907	-966.5350341796877	-399.8290100097657	105.9338531494141	-1006.094116210938	-191.7628936767578	62.28956222534181	-978.3594970703127	-190.7686462402344	64.58117675781251	-1026.167236328125	-226.7731628417969	51.05054092407228	-1072.8798828125	-294.8478698730469	781.6237792968752	-666.2232666015626	-254.6971435546876	727.3910522460939	-666.5332641601564	-222.0517578125001	730.0303344726564	-671.5935668945314	-278.9356384277344	648.7431640625001	-684.3994750976564	-278.7528991699219	534.3635253906251	-695.4148559570314	-293.3158264160157	532.0390625000001	-818.6616210937502	-241.9480743408204	405.1353149414064	-729.1229858398439	-312.3608093261719	336.4418640136719	-680.2630615234376	-272.6376037597657	327.3457336425782	-699.4135742187501	-266.9959411621094	277.2868041992188	-727.7581176757814	-343.4693298339844	131.4855041503907	-712.9971923828126	-324.5108032226563	136.0378875732422	-796.1069946289065	-401.7268981933595	105.1319351196289	-758.7925415039064	-196.8501281738282	61.51753616333009	-775.5952148437502	-191.9522247314453	58.56852340698244	-738.4570312500001	-232.0368804931641	46.70483016967774	-686.2099609375001	nan	nan	nan	nan	nan	nan	nan	nan	nan	nan	nan	nan	nan	nan	nan	nan	nan	nan	
2	0.005	-187.6921539306641	1800.42041015625	-797.278747558594	-323.7420043945313	1768.593139648438	-870.9600830078127	-359.6881713867188	1742.183715820313	-710.7939453125001	-375.9605102539063	1568.122680664063	-803.762145996094	-372.5097045898438	1267.301025390625	-823.5642700195315	-296.7665100097657	1602.54736328125	-952.2946777343752	-157.2983093261719	1605.893676757813	-1083.683959960938	-121.3615798950196	1618.521484375	-1051.537353515625	-88.90747833251955	1611.920166015625	-1103.555908203125	-30.52031517028809	1622.64599609375	-1104.79248046875	-26.02881622314454	1541.33154296875	-1101.148193359375	211.8568572998047	1656.543579101563	-961.2813110351565	225.8442077636719	1667.236938476563	-856.3628540039065	-286.0449523925782	1570.80810546875	-653.4572753906251	-132.3603668212891	1564.813842773438	-553.9281616210939	-105.2171478271485	1584.869018554688	-592.2600097656251	-63.3136558532715	1574.790161132813	-549.9817504882814	-3.184910535812379	1587.80029296875	-560.0749511718751	6.955714225769045	1507.379028320313	-573.1360473632814	235.2251281738282	1644.77001953125	-703.4081420898439	-216.0946502685547	1073.881591796875	-952.3476562500002	-194.6617584228516	1049.668212890625	-739.1662597656251	-369.9119262695313	1124.671020507813	-824.8223266601565	-379.2715454101563	1092.796875	-852.7747802734377	-371.6798706054688	1093.134765625	-795.6003417968752	-311.8632507324219	841.3707275390627	-1042.677978515625	-276.5703125000001	764.4946289062501	-1048.365844726563	-229.2173309326172	768.2808227539065	-1041.6728515625	-301.6325683593751	710.3620605468751	-1038.135864257813	-278.0890502929688	552.0063476562501	-1034.934326171875	-270.2868347167969	536.6881713867189	-913.280456542969	-261.8269348144532	371.2434387207032	-978.110290527344	-289.6143493652344	331.3089904785157	-1052.454467773438	-259.7142639160157	326.1743469238282	-1016.440856933594	-280.0286865234376	247.1051177978516	-993.1477050781252	-333.1693115234376	133.7817840576172	-1050.53564453125	-315.7905273437501	138.9323120117188	-966.4102172851565	-399.9194641113282	105.6699523925782	-1005.934143066406	-191.8006591796875	62.12838745117189	-978.397644042969	-190.9335174560547	64.45745849609376	-1026.186157226563	-226.9633026123047	50.90416717529298	-1072.908081054688	-294.7981872558594	781.6285400390627	-666.2666625976564	-254.4774322509766	726.9194946289064	-666.5076904296876	-222.0149230957032	730.0570068359376	-671.7032470703126	-278.8803405761719	648.7875976562501	-684.4661865234376	-278.6714477539063	534.3709716796876	-695.5491943359376	-293.2841186523438	532.0431518554689	-818.715515136719	-241.9179077148438	405.1185913085939	-729.2006225585939	-312.3075866699219	336.4955444335938	-680.3048095703126	-272.6257019042969	327.3430480957032	-699.4549560546876	-266.9731140136719	277.2984924316407	-727.7631225585939	-343.4890747070313	131.4693908691407	-713.0109863281251	-324.5728454589844	136.0221252441407	-796.0482177734377	-401.7212829589845	105.1353912353516	-758.8048706054689	-196.8131561279297	61.54903411865236	-775.588317871094	-191.9544219970703	58.5672073364258	-738.4605712890626	-232.0809631347657	46.68222045898438	-686.2612304687501	nan	nan	nan	nan	nan	nan	nan	nan	nan	nan	nan	nan	nan	nan	nan	nan	nan	nan	
3	0.01	-187.47509765625	1800.217895507813	-797.404724121094	-323.6225280761719	1768.42431640625	-871.0384521484377	-359.7179565429688	1741.893920898438	-710.8820190429689	-375.8802185058594	1567.91357421875	-804.0258789062502	-372.3866882324219	1267.102783203125	-824.143005371094	-296.7410583496094	1602.457275390625	-952.5759887695315	-157.098876953125	1605.86181640625	-1083.960327148438	-121.2848281860352	1618.522705078125	-1051.730834960938	-89.02878570556642	1612.567749023438	-1103.746459960938	-30.43797111511231	1622.739379882813	-1104.94970703125	-25.92866897583009	1541.428833007813	-1101.378662109375	211.9322204589844	1656.664916992188	-961.4147949218752	225.8408966064454	1667.277465820313	-856.4587402343752	-285.9808349609376	1570.505859375	-653.6993408203126	-132.2649688720703	1564.2822265625	-554.2074584960939	-105.2454376220703	1584.601318359375	-592.4818115234376	-63.2578582763672	1574.339599609375	-550.2079467773439	-3.052614450454713	1587.463623046875	-560.2818603515626	6.950847148895265	1507.026977539063	-573.4030151367189	235.2143554687501	1644.671875	-703.5150756835939	-215.6585693359376	1073.428344726563	-952.7890625000002	-194.6122436523438	1049.632690429688	-739.3737182617189	-369.8847351074219	1124.5087890625	-825.3342895507815	-379.5549926757813	1093.241088867188	-852.965270996094	-371.6396484375001	1093.046997070313	-796.0247192382815	-312.0468444824219	840.9809570312502	-1042.872802734375	-276.8646240234376	764.0421142578126	-1048.464233398438	-229.5436706542969	767.8034057617189	-1041.727905273438	-301.9606018066407	709.9846801757814	-1038.15478515625	-278.5619201660157	551.5632934570314	-1034.897338867188	-270.6234130859376	536.2838134765626	-913.277038574219	-262.5166320800782	370.6852722167969	-978.033630371094	-289.9837646484376	330.8715515136719	-1052.3955078125	-260.0786437988282	325.8382568359376	-1016.352478027344	-280.1110229492188	246.6949768066407	-993.0408935546877	-333.4917602539063	133.5479278564453	-1050.3857421875	-316.0860290527344	138.501693725586	-966.2863769531252	-399.9701232910157	105.5032501220703	-1005.792053222656	-191.8610534667969	62.00142669677736	-978.3899536132815	-190.9147491455078	64.39432525634767	-1026.205932617188	-226.8978118896485	51.13700485229494	-1072.917846679688	-294.7604980468751	781.6746826171877	-666.3907470703126	-254.2673492431641	726.9305419921876	-666.7395629882814	-221.9460449218751	730.0537109375001	-671.8052978515626	-278.7448730468751	648.3640747070314	-684.2213745117189	-278.4046630859376	533.8967285156251	-695.3896484375001	-293.3331604003907	532.0366821289064	-818.799255371094	-241.8449249267579	405.1585998535157	-729.2482910156251	-312.2275695800782	336.5487060546876	-680.2764282226564	-272.5927429199219	327.3465270996094	-699.4595947265626	-266.9635009765626	277.3357543945313	-727.7974853515626	-343.4934082031251	131.5235443115235	-712.9877929687501	-324.5718688964844	136.0218200683594	-796.0302734375002	-401.7140502929689	105.1397476196289	-758.7636108398439	-196.8654785156251	61.5608367919922	-775.5611572265627	-191.9797821044922	58.56976699829103	-738.4430541992189	-232.0597534179688	46.67670440673829	-686.2120361328126	nan	nan	nan	nan	nan	nan	nan	nan	nan	nan	nan	nan	nan	nan	nan	nan	nan	nan	
4	0.015	-187.5194244384766	1799.98046875	-797.3651123046877	-323.6522216796876	1768.243774414063	-871.1024169921877	-359.7535095214844	1741.561157226563	-710.9817504882814	-375.9039916992188	1567.699096679688	-804.3489990234377	-372.3303833007813	1266.87890625	-824.6279907226565	-296.6050415039063	1602.3544921875	-952.856384277344	-157.2222290039063	1606.03125	-1084.130615234375	-121.1465911865235	1618.529907226563	-1051.983276367188	-88.94371795654298	1612.66162109375	-1104.015747070313	-30.42287063598634	1622.779663085938	-1105.140747070313	-25.86473274230958	1541.531372070313	-1101.630615234375	211.9392395019532	1656.771240234375	-961.5391235351565	225.8521118164063	1667.28369140625	-856.5544433593752	-285.9930725097657	1570.149169921875	-654.0100708007814	-132.2404174804688	1563.865600585938	-554.5034179687501	-105.2223205566407	1584.261352539063	-592.7435302734376	-63.39688110351564	1573.839599609375	-550.4295654296876	-3.043968200683595	1587.0927734375	-560.5212402343751	6.946465015411379	1506.822509765625	-573.6658935546876	235.1853332519532	1644.576293945313	-703.6294555664064	-215.3428497314454	1073.020629882813	-953.2625122070315	-194.5401458740235	1049.622802734375	-739.6970214843751	-369.8527526855469	1124.252563476563	-825.7927246093752	-379.3160095214844	1092.98486328125	-853.4912109375002	-371.5472412109376	1092.949462890625	-796.5316162109377	-312.1884460449219	840.6339111328127	-1042.978515625	-277.0624084472657	763.5428466796876	-1048.63623046875	-229.2046813964844	766.7898559570314	-1041.618286132813	-302.2298278808594	709.5269165039064	-1038.323608398438	-279.0350341796876	551.1478881835939	-1034.771362304688	-271.1032104492188	535.9224853515626	-913.257263183594	-262.7699890136719	370.3364257812501	-977.9571533203127	-290.1936035156251	330.4989318847657	-1052.291381835938	-260.1710815429688	325.5765075683594	-1016.268493652344	-280.0844116210938	246.5005645751954	-992.9547119140627	-335.3565368652344	135.0676879882813	-1050.771606445313	-316.1382446289063	138.1480407714844	-966.1895141601565	-400.4241027832032	106.2239227294922	-1006.274719238281	-191.915283203125	61.84514617919923	-978.350524902344	-190.8946533203125	64.35440063476564	-1026.168334960938	-227.0241394042969	51.07369613647462	-1072.829833984375	-294.6702880859376	781.716735839844	-666.4553833007814	-254.2882232666016	727.5358276367189	-667.0989379882814	-221.7294006347657	730.1101074218751	-671.9894409179689	-278.6876831054688	648.4421386718751	-684.3374023437501	-278.4052124023438	534.4075317382814	-695.7317504882814	-293.3092041015626	532.0416259765626	-818.894714355469	-241.8192443847657	405.1866149902345	-729.3904418945314	-312.1973571777344	336.5284423828126	-680.2909545898439	-272.5739440917969	327.3673706054688	-699.5019531250001	-266.9486083984376	277.3500976562501	-727.8641967773439	-343.4752197265626	131.5060119628907	-713.0001220703126	-324.5781860351563	136.0203399658203	-796.0341796875002	-401.7210388183595	105.1467056274414	-758.7470703125001	-196.8597106933594	61.56371307373048	-775.5280761718752	-191.9536895751953	58.56105804443361	-738.4495239257814	-232.0534362792969	46.65433502197266	-686.2422485351564	nan	nan	nan	nan	nan	nan	nan	nan	nan	nan	nan	nan	nan	nan	nan	nan	nan	nan	
